<svg width="13" height="16" viewBox="0 0 13 16" fill="none" xmlns="http://www.w3.org/2000/svg">
<path fill-rule="evenodd" clip-rule="evenodd" d="M5.96612 15.919C5.9663 15.9191 5.96643 15.9191 6.2223 15.5558L5.96612 15.919ZM6.47849 15.919L6.48009 15.9178L6.48413 15.915L6.49826 15.9048C6.5104 15.8961 6.52786 15.8835 6.55026 15.8671C6.59506 15.8341 6.65973 15.7859 6.74147 15.7231C6.90485 15.5975 7.13658 15.4133 7.41392 15.1762C7.96797 14.7024 8.70714 14.0148 9.44746 13.1584C10.9174 11.4579 12.4446 9.03101 12.4446 6.25648C12.4446 4.59802 11.7897 3.00693 10.6231 1.8334C9.45635 0.659804 7.87339 0 6.2223 0C4.57122 0 2.98826 0.659804 1.82154 1.8334C0.654942 3.00693 0 4.59802 0 6.25648C0 9.03101 1.52718 11.4579 2.99715 13.1584C3.73747 14.0148 4.47664 14.7024 5.03069 15.1762C5.30803 15.4133 5.53976 15.5975 5.70314 15.7231C5.78488 15.7859 5.84954 15.8341 5.89434 15.8671C5.91675 15.8835 5.93421 15.8961 5.94635 15.9048L5.96048 15.915L5.96452 15.9178L5.96612 15.919C6.11959 16.027 6.32502 16.027 6.47849 15.919ZM6.2223 15.5558L6.47849 15.919C6.47831 15.9191 6.47817 15.9191 6.2223 15.5558ZM8.44456 6.2223C8.44456 7.44961 7.44961 8.44456 6.2223 8.44456C4.995 8.44456 4.00005 7.44961 4.00005 6.2223C4.00005 4.995 4.995 4.00005 6.2223 4.00005C7.44961 4.00005 8.44456 4.995 8.44456 6.2223Z" fill="white" fill-opacity="0.9"/>
</svg>
